<svg xmlns="http://www.w3.org/2000/svg" xmlns:xlink="http://www.w3.org/1999/xlink" width="58" height="58" version="1.1" viewBox="0 0 58 58"><title>0105D592-F0D7-4FCA-AE6B-AD76B37A9B82</title><desc>Created with sketchtool.</desc><g id="Symbols" fill="none" fill-rule="evenodd" stroke="none" stroke-width="1"><g id="icon-uml-erd-666" fill="#666"><path d="M6,6 L30,6 L30,30 L6,30 L6,6 Z M40,6 L64,6 L64,30 L40,30 L40,6 Z M6,40 L30,40 L30,64 L6,64 L6,40 Z M8,14 L8,28 L28,28 L28,14 L8,14 Z M42,14 L42,28 L62,28 L62,14 L42,14 Z M8,48 L8,62 L28,62 L28,48 L8,48 Z M31,17 L39,17 L39,19 L31,19 L31,17 Z M17,31 L19,31 L19,39 L17,39 L17,31 Z" transform="translate(-6.000000, -6.000000)"/></g></g></svg>