<svg xmlns="http://www.w3.org/2000/svg" xmlns:xlink="http://www.w3.org/1999/xlink" width="70" height="52" version="1.1" viewBox="0 0 70 52"><title>D9819C69-10EA-4359-BEE2-3665FB842775</title><desc>Created with sketchtool.</desc><g id="Symbols" fill="none" fill-rule="evenodd" stroke="none" stroke-width="1"><g id="icon-mind-map-666" fill="#666"><path d="M26,9 L44,9 L44,21 L26,21 L26,9 Z M26,29 L44,29 L44,41 L26,41 L26,29 Z M52,29 L70,29 L70,41 L52,41 L52,29 Z M0,29 L18,29 L18,41 L0,41 L0,29 Z M26,49 L44,49 L44,61 L26,61 L26,49 Z M34,22 L36,22 L36,28 L34,28 L34,22 Z M19,34 L25,34 L25,36 L19,36 L19,34 Z M45,34 L51,34 L51,36 L45,36 L45,34 Z M34,42 L36,42 L36,48 L34,48 L34,42 Z" transform="translate(0.000000, -9.000000)"/></g></g></svg>