<svg xmlns="http://www.w3.org/2000/svg" xmlns:svg="http://www.w3.org/2000/svg" id="svg855" width="742.409" height="742.409" version="1.1" viewBox="0 0 196.429 196.429"><metadata id="metadata861"/><path id="path853" d="M 196.50801,196.428 H 0.11000788 V 0 H 196.50801 Z" style="fill:#5576b5;paint-order:normal;fill-opacity:1"/><path style="opacity:1;fill:#fff;stroke:none;stroke-width:.99999976;stroke-linecap:butt;stroke-linejoin:miter;stroke-miterlimit:4;stroke-dasharray:none;stroke-opacity:1;fill-opacity:1" id="path874" d="m 32.872972,142.71433 14.139997,-13.03508 c -3.986873,-7.40249 -8.131581,-17.64648 -8.131581,-31.638069 0,-32.904864 26.288509,-62.626189 63.146142,-62.626189 33.223,0 61.47774,28.022527 61.47774,62.850767 0,36.838821 -30.17749,63.325981 -61.9977,63.325981 -10.48289,0 -17.747804,-2.33828 -25.735919,-5.38693 l 5.233434,-10.69676 c 5.253591,2.42995 12.508246,4.51212 19.192325,4.51212 30.48077,0 51.86175,-24.24386 51.86175,-51.574572 0,-32.046659 -26.65513,-51.533731 -50.26272,-51.533731 -31.925347,0 -51.322457,27.191262 -51.322457,51.244569 0,10.004934 2.665251,17.162744 5.43649,23.289914 l 12.805835,-11.89428 0.09161,33.17671 z"/></svg>