<svg xmlns="http://www.w3.org/2000/svg" xmlns:xlink="http://www.w3.org/1999/xlink" width="48" height="48"><path fill="#fee087" d="M2 35a2 2 0 0 1-2-2V0h14.05L19 5h22v3h2v24.9c.001.554-.22 1.085-.6 1.477s-.922.612-1.476.613z"/><path fill="#1e1e1e" d="M4 33a2 2 0 1 1-4 0V0h14.05L19 5h22v3H4z" opacity=".2"/><path fill="#fff" d="M9 15h34v20H8V16a1 1 0 0 1 1-1z" opacity=".4"/><use fill="#ff8c00" xlink:href="#B"/><g fill="#0072c6"><rect width="2" height="2" x="44" y="18" rx=".5"/><rect width="2" height="2" x="44" y="22" rx=".5"/></g><use y="11" fill="#ff8c00" xlink:href="#B"/><g fill="#0072c6"><rect width="2" height="2" x="44" y="29" rx=".5"/><rect width="2" height="2" x="44" y="33" rx=".5"/></g><use y="22" fill="#ff8c00" xlink:href="#B"/><g fill="#0072c6"><rect width="2" height="2" x="44" y="40" rx=".5"/><rect width="2" height="2" x="44" y="44" rx=".5"/></g><defs><path id="B" d="M47 16H10a1 1 0 0 0-1 1v8a1 1 0 0 0 1 1h37a1 1 0 0 0 1-1v-8a1 1 0 0 0-1-1z"/></defs></svg>