<svg xmlns="http://www.w3.org/2000/svg" xmlns:xlink="http://www.w3.org/1999/xlink" width="50" height="46.4"><path fill="#0072c6" d="M0 25.2c0 .7.5 1.2 1.2 1.2h27.6c.7 0 1.2-.5 1.2-1.2v-20H0z"/><path fill="#a0a1a2" d="M28.8 0H1.2C.5 0 0 .5 0 1.2v4.4h30V1.2c0-.7-.5-1.2-1.2-1.2z"/><g fill="#fff"><path d="M1.2 0C.5 0 0 .5 0 1.2v24c0 .7.5 1.2 1.2 1.2h11.5L26.2 0z" opacity=".1"/><path d="M5.1 12.6l-.3-.3c-.1-.1-.1-.2 0-.3l.8-.7.1-.1c.1 0 .1 0 .1.1L8 13.7l3.9-4.9s.1-.1.2-.1h.1l.9.7.1.1v.1l-5 6.3zm0 7.8l-.3-.3c-.1-.1-.1-.2 0-.3l.8-.7.1-.1c.1 0 .1 0 .1.1L8 21.5l3.9-4.9s.1-.1.2-.1h.1l.9.7.1.1v.1l-5 6.3z"/></g><path fill="#3999c6" d="M10 35.2c0 .7.5 1.2 1.2 1.2h27.6c.7 0 1.2-.5 1.2-1.2v-20H10z"/><path fill="#a0a1a2" d="M38.8 10H11.2c-.7 0-1.2.5-1.2 1.2v4.4h30v-4.4c0-.7-.5-1.2-1.2-1.2z"/><g fill="#fff"><path d="M11.2 10c-.7 0-1.2.5-1.2 1.2v24c0 .7.5 1.2 1.2 1.2h11.5L36.2 10z" opacity=".1"/><use xlink:href="#B"/><use y="7.8" xlink:href="#B"/></g><path fill="#59b4d9" d="M20 45.2c0 .7.5 1.2 1.2 1.2h27.6c.7 0 1.2-.5 1.2-1.2v-20H20z"/><path fill="#a0a1a2" d="M48.8 20H21.2c-.7 0-1.2.5-1.2 1.2v4.4h30v-4.4c0-.7-.5-1.2-1.2-1.2z"/><g fill="#fff"><path d="M20 25.6h30v2H20z" opacity=".15"/><path d="M21.2 20c-.7 0-1.2.5-1.2 1.2v24c0 .7.5 1.2 1.2 1.2h11.5L46.2 20z" opacity=".1"/><use x="10" y="10" xlink:href="#B"/><path d="M33.2 32.5h12v2h-12z" opacity=".6"/><use x="10" y="17.8" xlink:href="#B"/><path d="M33.2 40.4h12v2h-12z" opacity=".6"/></g><defs><path id="B" d="M15.1 22.6l-.3-.3c-.1-.1-.1-.2 0-.3l.8-.7.1-.1c.1 0 .1 0 .1.1l2.2 2.4 3.9-4.9s.1-.1.2-.1h.1l.9.7.1.1v.1l-5 6.3z"/></defs></svg>