<svg xmlns="http://www.w3.org/2000/svg" xmlns:xlink="http://www.w3.org/1999/xlink" width="50" height="42.6"><path fill="#59b4d9" d="M0 40.6c0 1.1.9 2 2 2h46c1.1 0 2-.9 2-2V9.3H0z"/><path fill="#0072c6" d="M48 0H2C.9 0 0 .9 0 2v10.6h50V2c0-1.1-.9-2-2-2"/><path fill="#fff" d="M12.9 4.8h33.7v3.9H12.9z"/><path fill="#59b4d9" d="M11.3 6.7a4.91 4.91 0 0 1-4.9 4.9 4.91 4.91 0 0 1-4.9-4.9 4.91 4.91 0 0 1 4.9-4.9 4.91 4.91 0 0 1 4.9 4.9"/><path fill="#fff" d="M6.9 9.6L4 6.8l2.9-2.9h1.2L5.9 6.3h5.4v.9H5.9l2.2 2.4z"/><g fill="#0072c6"><use xlink:href="#B"/><use x="8.9" xlink:href="#B"/><use x="17.8" xlink:href="#B"/></g><defs><path id="B" d="M17.4 32.1c0 .6-.2 1-.6 1.4s-.9.5-1.6.5c-.6 0-1.1-.2-1.5-.6s-.6-.8-.6-1.4.2-1 .6-1.4.9-.5 1.6-.5c.6 0 1.1.2 1.5.6s.6.8.6 1.4z"/></defs></svg>