<svg xmlns="http://www.w3.org/2000/svg" xmlns:xlink="http://www.w3.org/1999/xlink" width="50" height="48"><g fill="#7fba00"><use xlink:href="#B"/><use y="7" xlink:href="#B"/><use y="-7" xlink:href="#B"/></g><path fill="#7a7a7a" d="M0 .5v6a.5.5 0 0 0 .5.5h2a.5.5 0 0 0 .5-.5v-3a.5.5 0 0 1 .5-.5h21a.5.5 0 0 1 .5.5v3a.5.5 0 0 0 .5.5h2a.5.5 0 0 0 .5-.5v-6a.5.5 0 0 0-.5-.5H.5a.5.5 0 0 0-.5.5z"/><g fill="#7fba00"><use x="11" y="9" xlink:href="#B"/><use x="11" y="16" xlink:href="#B"/><use x="11" y="2" xlink:href="#B"/></g><use fill="#7a7a7a" xlink:href="#C"/><g fill="#7fba00"><use x="22" y="18" xlink:href="#B"/><use x="29" y="14" xlink:href="#B"/><use x="29" y="21" xlink:href="#B"/><use x="36" y="18" xlink:href="#B"/><use x="22" y="25" xlink:href="#B"/><use x="22" y="11" xlink:href="#B"/></g><g fill="#3999c6"><use x="11" y="9" xlink:href="#C"/><path d="M50 47.5v-6a.5.5 0 0 0-.5-.5h-2a.5.5 0 0 0-.5.5v3a.5.5 0 0 1-.5.5h-21a.5.5 0 0 1-.5-.5v-3a.5.5 0 0 0-.5-.5h-2a.5.5 0 0 0-.5.5v6a.5.5 0 0 0 .5.5h27a.5.5 0 0 0 .5-.5z"/></g><path fill="#7a7a7a" d="M11 27H3.5a.5.5 0 0 1-.5-.5v-3a.5.5 0 0 0-.5-.5h-2a.5.5 0 0 0-.5.5v6a.5.5 0 0 0 .5.5H11zm11 9h-7.5a.5.5 0 0 1-.5-.5v-3a.5.5 0 0 0-.5-.5h-2a.5.5 0 0 0-.5.5v6a.5.5 0 0 0 .5.5H22z"/><defs><path id="B" d="M9.5 17h-4a.5.5 0 0 1-.5-.5v-3a.5.5 0 0 1 .5-.5h4a.5.5 0 0 1 .5.5v3a.5.5 0 0 1-.5.5z"/><path id="C" d="M11 9.5v6a.5.5 0 0 0 .5.5h2a.5.5 0 0 0 .5-.5v-3a.5.5 0 0 1 .5-.5h21a.5.5 0 0 1 .5.5v3a.5.5 0 0 0 .5.5h2a.5.5 0 0 0 .5-.5v-6a.5.5 0 0 0-.5-.5h-27a.5.5 0 0 0-.5.5z"/></defs></svg>