<svg xmlns="http://www.w3.org/2000/svg" xmlns:xlink="http://www.w3.org/1999/xlink" width="50" height="50"><path fill="#0072c6" d="M25 50c-1.2 0-2.4-.5-3.3-1.4L1.4 28.3C.5 27.4 0 26.2 0 25s.5-2.4 1.4-3.3L21.7 1.4C22.6.5 23.8 0 25 0s2.4.5 3.3 1.4l20.4 20.4c.9.9 1.4 2 1.4 3.3s-.5 2.4-1.4 3.3L28.3 48.6c-.9.9-2.1 1.4-3.3 1.4"/><path fill="#fff" d="M33.5 6.6l-5.2-5.2C27.4.5 26.2 0 25 0s-2.4.5-3.3 1.4L1.4 21.7C.5 22.6 0 23.8 0 25s.5 2.4 1.4 3.3l8.3 8.3 23.8-30z" enable-background="new" opacity=".2"/><path fill="#7fba00" d="M12 20.4H7v9.7c0 1 2.2 1.8 4.9 1.8h.1c2.8 0 5-.8 5-1.8v-9.7h-5z"/><path fill="#b8d432" d="M12 20.4v11.5c2.8 0 5-.8 5-1.8v-9.7h-5z"/><use fill="#fff" xlink:href="#B"/><g fill="#7fba00"><use xlink:href="#C"/><path d="M38 20.4h-5v9.7c0 1 2.2 1.8 4.9 1.8h.1c2.8 0 5-.8 5-1.8v-9.7h-5z"/></g><path fill="#b8d432" d="M38 20.4v11.5c2.8 0 5-.8 5-1.8v-9.7h-5z"/><use x="26" fill="#fff" xlink:href="#B"/><g fill="#7fba00"><use x="26" xlink:href="#C"/><path d="M25 7.4h-5v9.7c0 1 2.2 1.8 4.9 1.8h.1c2.8 0 5-.8 5-1.8V7.4h-5z"/></g><path fill="#b8d432" d="M25 7.4v11.5c2.8 0 5-.8 5-1.8V7.4h-5z"/><use x="13" y="-13" fill="#fff" xlink:href="#B"/><path fill="#7fba00" d="M28.7 7.4c0 .7-1.6 1.3-3.7 1.3s-3.7-.6-3.7-1.3S23 6.1 25 6.1s3.7.6 3.7 1.3m-3.7 26h-5v9.7c0 1 2.2 1.8 4.9 1.8h.1c2.8 0 5-.8 5-1.8v-9.7h-5z"/><path fill="#b8d432" d="M25 33.4v11.5c2.8 0 5-.8 5-1.8v-9.7h-5z"/><use x="13" y="13" fill="#fff" xlink:href="#B"/><use x="13" y="13" fill="#7fba00" xlink:href="#C"/><defs><path id="B" d="M17 20.4c0 1.3-2.2 2.3-5 2.3s-5-1-5-2.3 2.2-2.3 5-2.3 5 1 5 2.3"/><path id="C" d="M15.7 20.4c0 .7-1.6 1.3-3.7 1.3s-3.7-.6-3.7-1.3 1.6-1.3 3.7-1.3 3.7.6 3.7 1.3"/></defs></svg>