<svg xmlns="http://www.w3.org/2000/svg" xmlns:xlink="http://www.w3.org/1999/xlink" width="44" height="50"><path fill="#59b4d9" d="M35.2 0H0v50h44V8.8L37.2 2z"/><path fill="#fff" d="M2 48h40V9h-7V2H2z" opacity=".8"/><g fill="#59b4d9"><path d="M25.8 39.2a1.11 1.11 0 0 1-1.1 1.1H9.6a1.11 1.11 0 0 1-1.1-1.1 1.11 1.11 0 0 1 1.1-1.1h15.1a1.11 1.11 0 0 1 1.1 1.1"/><use xlink:href="#B"/><use y="7.5" xlink:href="#B"/><use y="-7.5" xlink:href="#B"/></g><defs><path id="B" d="M35.9 24.2a1.11 1.11 0 0 1-1.1 1.1H9.6a1.11 1.11 0 0 1-1.1-1.1 1.11 1.11 0 0 1 1.1-1.1h25.1c.7 0 1.2.5 1.2 1.1"/></defs></svg>