<svg xmlns="http://www.w3.org/2000/svg" xmlns:xlink="http://www.w3.org/1999/xlink" width="42.2" height="50"><path fill="#7fba00" d="M30.6 0l-9.9.4L0 21.1l14.7 14.7 20.7-20.7.8-9.5L30.6 0zm.8 7.7c-.8.8-2.1.8-2.9 0s-.8-2.1 0-2.9 2.1-.8 2.9 0 .8 2.1 0 2.9z"/><path fill="#fff" d="M18 3.1l-18 18 14.7 14.7 3.3-3.3z" opacity=".1"/><path fill="#1e1e1e" d="M32.6 3.6a3.68 3.68 0 0 0-5.3 0 3.68 3.68 0 0 0 0 5.3 3.68 3.68 0 0 0 5.3 0c1.5-1.5 1.5-3.9 0-5.3zm-1.2 4.1c-.8.8-2.1.8-2.9 0s-.8-2.1 0-2.9 2.1-.8 2.9 0 .8 2.1 0 2.9z" opacity=".3"/><path fill="#3999c6" d="M33.6 7.1l-9.9.4L3 28.2l14.7 14.7 20.7-20.7.8-9.5-5.6-5.6zm.8 7.7c-.8.8-2.1.8-2.9 0s-.8-2.1 0-2.9 2.1-.8 2.9 0 .8 2.1 0 2.9z"/><path fill="#fff" d="M21 10.2l-18 18 14.7 14.7 3.3-3.3z" opacity=".1"/><use fill="#1e1e1e" opacity=".3" xlink:href="#B"/><path fill="#804998" d="M36.6 14.2l-9.9.4L6 35.3 20.7 50l20.7-20.7.8-9.5-5.6-5.6zm.8 7.7c-.8.8-2.1.8-2.9 0s-.8-2.1 0-2.9 2.1-.8 2.9 0 .8 2.1 0 2.9z"/><path fill="#fff" d="M24 17.3l-18 18L20.7 50l3.3-3.3z" opacity=".1"/><use x="3" y="7.1" fill="#1e1e1e" opacity=".3" xlink:href="#B"/><defs><path id="B" d="M35.6 10.7a3.68 3.68 0 0 0-5.3 0 3.68 3.68 0 0 0 0 5.3 3.68 3.68 0 0 0 5.3 0 3.68 3.68 0 0 0 0-5.3zm-1.2 4.1c-.8.8-2.1.8-2.9 0s-.8-2.1 0-2.9 2.1-.8 2.9 0 .8 2.1 0 2.9z"/></defs></svg>