<svg xmlns="http://www.w3.org/2000/svg" xmlns:svg="http://www.w3.org/2000/svg" id="svg285" width="210mm" height="297mm" contentScriptType="text/ecmascript" contentStyleType="text/css" preserveAspectRatio="xMidYMid meet" version="1.1" viewBox="0 0 210 297" zoomAndPan="magnify"><defs id="defs279"><clipPath id="clipPath433" clipPathUnits="userSpaceOnUse"><path id="path431" d="M 0,144 H 144 V 0 H 0 Z"/></clipPath><clipPath id="clipPath449" clipPathUnits="userSpaceOnUse"><path id="path447" d="M 0,0 H 144 V 144 H 0 Z"/></clipPath><clipPath id="clipPath457" clipPathUnits="userSpaceOnUse"><path id="path455" d="M 34.3896,108.648 H 144.05 V 0.0267944 H 34.3896 Z"/></clipPath><clipPath id="clipPath461" clipPathUnits="userSpaceOnUse"><path id="path459" d="M 34.39,0.027 H 144.05 V 108.648 H 34.39 Z"/></clipPath><clipPath id="clipPath485" clipPathUnits="userSpaceOnUse"><path id="path483" d="M 0,0 H 144 V 144 H 0 Z"/></clipPath></defs><metadata id="metadata282"/><g id="layer1"><g style="opacity:1;stop-opacity:1;fill:#f08705;fill-opacity:1" id="g427" transform="matrix(0.35277777,0,0,-0.35277777,46.228234,128.83331)"><g style="fill:#f08705;fill-opacity:1" id="g429" clip-path="url(#clipPath433)"><g style="fill:#f08705;fill-opacity:1" id="g435" transform="translate(144,5)"><path id="path437" d="m 0,0 c 0,-2.762 -2.239,-5 -5,-5 h -134 c -2.762,0 -5,2.238 -5,5 v 134 c 0,2.762 2.238,5 5,5 H -5 c 2.761,0 5,-2.238 5,-5 z" style="fill:#f08705;fill-opacity:1;fill-rule:nonzero;stroke:none"/></g></g></g><g style="opacity:1;stop-opacity:1" id="g443" transform="matrix(0.39467541,0,0,-0.40021116,40.194973,128.95978)"><g id="g445" clip-path="url(#clipPath449)"><g id="g451"><g id="g473"><g id="g471" clip-path="url(#clipPath457)" opacity=".3"><g id="g469"><g id="g467" clip-path="url(#clipPath461)"><g id="g465" transform="translate(34.3896,78.1763)"><path id="path463" d="m 0.0 0.0 l 1.535 -47.371 l 33.208 -31.0 h 67.766 c 5.053 0.0 7.151 1.142 7.151 6.0 c 0.0 5.547 -0.056 47.189 -0.056 49.189 L 79.489 5.0 L 54.015 30.0 L 33.16 29.158 L 22.184 24.449 L 16.827 12.24 L 5.149 7.415 z" style="fill:#df6c0c;fill-opacity:1;fill-rule:nonzero;stroke:none"/></g></g></g></g></g></g></g></g><g id="g171" transform="translate(1.0690781,-1.6704345)"><path id="path477" fill="#FFF" stroke="none" d="m 61.50466,116.25924 c -0.972598,-0.26482 -1.51445,-1.10728 -1.516163,-2.35731 -5.48e-4,-0.39965 0.02599,-0.59114 0.117532,-0.84819 0.224401,-0.63009 0.818515,-1.10546 1.6003,-1.28043 0.389012,-0.0871 0.50886,-0.18055 0.50886,-0.39692 0,-0.0679 0.0463,-0.27009 0.102884,-0.44932 0.257075,-0.81423 0.733045,-1.493 1.241646,-1.77067 0.532297,-0.2906 0.80104,-0.35614 1.444952,-0.35237 0.914488,0.005 1.370726,0.22152 2.008844,0.95179 l 0.350943,0.40163 0.314396,-0.11856 c 1.521626,-0.57384 3.038536,0.40298 3.16081,2.03542 l 0.03345,0.44657 0.299643,0.11699 c 0.855734,0.3341 1.257956,1.03568 1.18504,2.06701 -0.04768,0.67445 -0.337064,1.21292 -0.795492,1.48023 l -0.215511,0.12567 -4.789484,0.0101 c -3.680475,0.008 -4.850426,-0.007 -5.052648,-0.0616 z" style="opacity:1;fill-opacity:1;fill-rule:nonzero;stroke-width:.054942;stop-opacity:1"/><path id="path478" fill="#FFF" stroke="none" d="m 57.896521,115.72471 c -0.567793,-0.14705 -1.169426,-0.69353 -1.451547,-1.3185 -0.160034,-0.35451 -0.168534,-0.40665 -0.168534,-1.03382 0,-0.59654 0.01366,-0.69224 0.141057,-0.98844 0.268569,-0.62441 0.783145,-1.07559 1.428784,-1.25275 0.136259,-0.0374 0.264297,-0.0971 0.284528,-0.13262 0.02023,-0.0356 0.0427,-0.22921 0.04994,-0.43036 0.04494,-1.24928 0.797137,-2.35003 1.84745,-2.70354 0.567437,-0.19099 1.280316,-0.14401 1.897508,0.12505 0.195748,0.0853 0.173706,0.10363 0.587596,-0.48777 0.24477,-0.34975 0.739355,-0.78472 1.144199,-1.0063 0.436928,-0.23913 0.89134,-0.3493 1.434757,-0.34785 1.51881,0.004 2.827773,1.03928 3.3118,2.61922 0.154648,0.50481 0.146938,0.64618 -0.03547,0.65035 -0.07961,0.002 -0.307696,0.0496 -0.50687,0.10616 l -0.362133,0.10285 -0.330438,-0.36008 c -0.931677,-1.01526 -2.452187,-1.2347 -3.744775,-0.54045 -0.516397,0.27736 -0.931361,0.67554 -1.244805,1.19446 -0.223458,0.36995 -0.50837,1.06011 -0.50837,1.23146 0,0.12156 -0.09033,0.1823 -0.476085,0.32016 -1.194326,0.42682 -1.891424,1.41252 -1.890942,2.6738 1.58e-4,0.45907 0.10866,1.0208 0.259276,1.34252 0.05678,0.12128 0.08846,0.23661 0.0704,0.25628 -0.04618,0.0503 -1.531912,0.0334 -1.737325,-0.0198 z" style="opacity:1;fill-opacity:1;fill-rule:nonzero;stroke-width:.054942;stop-opacity:1"/></g><g style="opacity:1;stop-opacity:1" id="g479" transform="matrix(0.35277777,0,0,-0.35277777,43.336716,124.56217)"><g id="g481" clip-path="url(#clipPath485)"><g id="g487" transform="translate(69.2168,88.5005)"><path id="path489" d="m 0,0 23.166,-22.5 v -31.834 c 0,0 1.75,-18 -14.166,-18 h -32.334 c 0,0 -12.833,-0.666 -12.833,17.667 v 39.333 c 0,0 -1.5,15.334 18.333,15.334 z" style="fill:none;stroke:#fff;stroke-width:5;stroke-linecap:butt;stroke-linejoin:miter;stroke-miterlimit:10;stroke-dasharray:none;stroke-opacity:1"/></g><g id="g491" transform="translate(70.3828,86.1665)"><path id="path493" d="M 0,0 V -19 H 20" style="fill:none;stroke:#fff;stroke-width:5;stroke-linecap:butt;stroke-linejoin:miter;stroke-miterlimit:10;stroke-dasharray:none;stroke-opacity:1"/></g><g id="g495" transform="translate(52.0498,89.0005)"><path id="path497" d="M 0,0 V 4.166 C 0,4.166 -1.5,19.5 18.333,19.5 H 35.167 L 59.333,-4 v -30.834 c 0,0 1.584,-18 -14.166,-18 H 41.75" style="fill:none;stroke:#fff;stroke-width:5;stroke-linecap:butt;stroke-linejoin:miter;stroke-miterlimit:10;stroke-dasharray:none;stroke-opacity:1"/></g><g id="g499" transform="translate(88.3828,106.1665)"><path id="path501" d="M 0,0 V -20 H 22" style="fill:none;stroke:#fff;stroke-width:5;stroke-linecap:butt;stroke-linejoin:miter;stroke-miterlimit:10;stroke-dasharray:none;stroke-opacity:1"/></g><g id="g503" transform="translate(131.9463,30.1675)"><path id="path505" d="M 0,0 C 0,4.648 -1.884,8.856 -4.931,11.902 L 0,16.833 H -12.625 V 4.208 l 4.719,4.718 c 2.285,-2.285 3.698,-5.442 3.698,-8.927 0,-6.972 -5.652,-12.625 -12.625,-12.625 -3.771,0 -7.155,1.654 -9.469,4.274 l -3.156,-2.783 c 3.085,-3.495 7.598,-5.699 12.625,-5.699 9.297,0 16.833,7.536 16.833,16.833 z" style="fill:#fff;fill-opacity:1;fill-rule:nonzero;stroke:none"/></g></g></g><path id="path578" d="m 46.472771,80.676567 c 0,-1.553617 0.08324,-1.986187 0.419994,-2.182622 0.375682,-0.219139 2.99484,-0.244989 24.82334,-0.244989 22.352122,0 24.434178,0.02162 24.770159,0.257254 0.254956,0.178806 0.393835,0.844389 0.455428,2.182623 l 0.08861,1.925369 H 71.751538 46.472771 Z" style="fill:#f08705;fill-opacity:1;stroke:none;stroke-width:.202075"/><path id="path582" d="m 174.8888,312.04543 0.0745,-12.18496 0.73521,-1.32692 c 0.77754,-1.40333 1.81083,-2.33651 3.36863,-3.04229 0.88532,-0.40111 6.84481,-0.42902 91.60811,-0.42902 86.4344,0 90.71567,0.021 91.82982,0.45102 0.64275,0.24806 1.38142,0.69349 1.6415,0.98984 0.46375,0.52843 0.46324,0.53529 -0.0266,0.35558 -2.85495,-1.04739 -18.77745,-1.21625 -102.16332,-1.08343 -81.43144,0.12971 -83.16894,0.16117 -84.76601,1.53492 -1.30824,1.1253 -1.42301,2.25635 -1.53365,15.11407 -0.0874,10.16237 -0.15318,11.80616 -0.47211,11.80616 -0.32156,0 -0.36067,-1.60965 -0.29605,-12.18497 z" style="fill:#f08705;fill-opacity:1;stroke:none" transform="scale(0.26458333)"/><path id="path600" d="m 366.30132,306.47964 c -0.059,-2.50499 -0.52226,-6.33544 -0.92996,-7.69012 -0.46311,-1.5388 -0.29848,-1.6474 0.42346,-0.27935 0.50302,0.95321 0.59134,1.54666 0.67071,4.50702 0.0503,1.8751 0.043,3.80701 -0.0162,4.29315 -0.063,0.51716 -0.12437,0.1725 -0.14802,-0.8307 z" style="fill:#f08705;fill-opacity:1;stroke:none" transform="scale(0.26458333)"/></g></svg>